# 3ds Max Wavefront OBJ Exporter v0.99 - (c)2007 guruware
# File Created: 19.07.2022 11:24:20

mtllib UP_Wardrobe2_L.mtl

#
# object Box017
#

v  -30.0000 100.0000 22.5000
v  30.0000 100.0000 22.5000
v  30.0000 100.0000 -22.5000
v  -30.0000 100.0000 -22.5000
v  -30.0000 0.0000 22.5000
v  30.0000 0.0000 22.5000
v  30.0000 0.0000 -22.5000
v  -30.0000 0.0000 -22.5000
v  29.4993 0.0000 24.9357
v  29.4993 0.0000 22.5624
v  29.4993 99.4153 22.5624
v  29.4993 99.4153 24.9357
v  0.0907 99.4153 24.9357
v  0.0907 0.0000 24.9357
v  0.0907 99.4153 22.5624
v  -29.4993 0.0000 22.5624
v  -29.4993 0.0000 24.9357
v  -29.4993 99.4153 24.9357
v  -29.4993 99.4153 22.5624
v  -0.0907 99.4153 22.5624
v  -0.0907 99.4153 24.9357
v  -0.0907 0.0000 24.9357
v  0.0907 0.0000 22.5624
v  -0.0907 0.0000 22.5624
v  4.5186 96.3570 24.8289
v  4.5186 97.0470 24.8049
v  4.5186 95.1668 26.3692
v  4.5186 94.8210 25.7689
v  2.7852 97.0470 24.8049
v  2.7852 95.1668 26.3692
v  2.7852 96.3570 24.8289
v  2.7852 94.8210 25.7689
v  4.5186 93.3728 27.4847
v  4.5186 93.0910 26.8445
v  2.7852 93.3728 27.4847
v  2.7852 93.0910 26.8445
v  4.5186 91.4448 28.2915
v  4.5186 91.2791 27.6028
v  2.7852 91.4448 28.2915
v  2.7852 91.2791 27.6028
v  4.5186 89.3325 28.6170
v  4.5186 89.3281 27.9034
v  2.7852 89.3325 28.6170
v  2.7852 89.3281 27.9034
v  4.5186 86.9998 28.2921
v  4.5186 87.1658 27.6023
v  2.7852 86.9998 28.2921
v  2.7852 87.1658 27.6023
v  4.5186 84.4132 27.1663
v  4.5186 84.7180 26.5369
v  2.7852 84.4132 27.1663
v  2.7852 84.7180 26.5369
v  4.5186 81.3794 24.8085
v  4.5186 82.0702 24.8253
v  2.7852 81.3794 24.8085
v  2.7852 82.0702 24.8253
v  -4.5186 96.3570 24.8289
v  -4.5186 94.8210 25.7689
v  -4.5186 95.1668 26.3691
v  -4.5186 97.0470 24.8049
v  -2.7852 95.1668 26.3691
v  -2.7852 97.0470 24.8049
v  -2.7852 94.8210 25.7689
v  -2.7852 96.3570 24.8289
v  -4.5186 93.0910 26.8445
v  -4.5186 93.3728 27.4847
v  -2.7852 93.3728 27.4847
v  -2.7852 93.0910 26.8445
v  -4.5186 91.2791 27.6028
v  -4.5186 91.4448 28.2915
v  -2.7852 91.4448 28.2915
v  -2.7852 91.2791 27.6028
v  -4.5186 89.3281 27.9034
v  -4.5186 89.3325 28.6170
v  -2.7852 89.3325 28.6170
v  -2.7852 89.3281 27.9034
v  -4.5186 87.1658 27.6023
v  -4.5186 86.9998 28.2921
v  -2.7852 86.9998 28.2921
v  -2.7852 87.1658 27.6023
v  -4.5186 84.7180 26.5369
v  -4.5186 84.4132 27.1663
v  -2.7852 84.4132 27.1663
v  -2.7852 84.7180 26.5369
v  -4.5186 82.0702 24.8253
v  -4.5186 81.3794 24.8085
v  -2.7852 81.3794 24.8085
v  -2.7852 82.0702 24.8253
# 88 vertices

vn -0.5774 0.5774 0.5774
vn 0.5774 0.5774 0.5774
vn 0.5774 0.5774 -0.5774
vn -0.5774 0.5774 -0.5774
vn -0.7071 0.0000 0.7071
vn 0.7071 0.0000 0.7071
vn 0.7071 0.0000 -0.7071
vn -0.7071 0.0000 -0.7071
vn 0.7071 -0.0000 0.7071
vn 1.0000 -0.0000 0.0000
vn 0.7071 0.7071 0.0000
vn -0.7071 0.7071 -0.0000
vn -1.0000 -0.0000 0.0000
vn -0.7071 -0.0000 0.7071
vn -0.7071 0.7071 0.0000
vn 0.7071 0.7071 -0.0000
vn -1.0000 0.0000 -0.0000
vn 1.0000 0.0000 -0.0000
vn 0.8583 -0.2679 -0.4377
vn 0.3869 0.5897 0.7089
vn 0.6920 0.4225 0.5854
vn 0.7063 -0.3717 -0.6025
vn -0.3870 0.5897 0.7088
vn -0.6920 0.4224 0.5854
vn -0.8583 -0.2679 -0.4377
vn -0.7063 -0.3717 -0.6025
vn 0.6895 0.3321 0.6436
vn 0.7255 -0.3155 -0.6116
vn -0.6896 0.3320 0.6436
vn -0.7255 -0.3155 -0.6116
vn 0.6808 0.1986 0.7051
vn 0.7355 -0.1837 -0.6521
vn -0.6808 0.1986 0.7051
vn -0.7355 -0.1837 -0.6521
vn 0.6759 0.0053 0.7370
vn 0.7413 -0.0049 -0.6712
vn -0.6759 0.0053 0.7370
vn -0.7413 -0.0049 -0.6712
vn 0.6778 -0.1993 0.7077
vn 0.7389 0.1826 -0.6486
vn -0.6778 -0.1993 0.7077
vn -0.7390 0.1826 -0.6485
vn 0.6801 -0.3742 0.6305
vn 0.7260 0.3250 -0.6061
vn -0.6801 -0.3742 0.6305
vn -0.7259 0.3250 -0.6062
vn 0.3754 -0.5688 0.7318
vn 0.8552 0.2813 -0.4352
vn -0.3754 -0.5688 0.7318
vn -0.8552 0.2813 -0.4352
vn -0.6920 0.4225 0.5854
vn -0.3869 0.5897 0.7089
vn -0.6895 0.3321 0.6436
vn 0.6896 0.3321 0.6436
vn 0.6778 -0.1993 0.7078
vn 0.7390 0.1826 -0.6485
vn -0.7259 0.3250 -0.6061
# 57 vertex normals

vt 0.3624 0.0260 0.0000
vt 0.6272 0.0260 0.0000
vt 0.6272 0.1874 0.0000
vt 0.3624 0.1874 0.0000
vt 0.9583 0.5351 0.0000
vt 0.9583 0.7337 0.0000
vt 0.6272 0.7337 0.0000
vt 0.6272 0.5351 0.0000
vt 0.9583 0.0260 0.0000
vt 0.9583 0.1874 0.0000
vt 0.9583 0.3612 0.0000
vt 0.6272 0.3612 0.0000
vt 0.3822 0.2194 0.0000
vt 0.5390 0.2194 0.0000
vt 0.5390 0.7391 0.0000
vt 0.3822 0.6047 0.0000
vt 0.2643 0.6047 0.0000
vt 0.2643 0.2194 0.0000
vt 0.1046 0.7391 0.0000
vt 0.1046 0.2194 0.0000
vt 0.9647 0.8170 0.0000
vt 0.9647 0.7778 0.0000
vt 0.8585 0.7778 0.0000
vt 0.8585 0.8170 0.0000
vt 0.9647 0.9323 0.0000
vt 0.9647 0.8946 0.0000
vt 0.8585 0.8946 0.0000
vt 0.8585 0.9323 0.0000
vt 0.9647 0.8561 0.0000
vt 0.8585 0.8561 0.0000
vt 0.7519 0.7778 0.0000
vt 0.7519 0.8170 0.0000
vt 0.7519 0.8946 0.0000
vt 0.7519 0.9323 0.0000
vt 0.7519 0.8561 0.0000
vt 0.6360 0.7778 0.0000
vt 0.6360 0.8170 0.0000
vt 0.6360 0.8946 0.0000
vt 0.6360 0.9323 0.0000
vt 0.6360 0.8561 0.0000
vt 0.5086 0.7778 0.0000
vt 0.5086 0.8170 0.0000
vt 0.5086 0.8946 0.0000
vt 0.5086 0.9323 0.0000
vt 0.5086 0.8561 0.0000
vt 0.3676 0.7778 0.0000
vt 0.3676 0.8170 0.0000
vt 0.3676 0.8946 0.0000
vt 0.3676 0.9323 0.0000
vt 0.3676 0.8561 0.0000
vt 0.2065 0.7778 0.0000
vt 0.2065 0.8170 0.0000
vt 0.2065 0.8946 0.0000
vt 0.2065 0.9323 0.0000
vt 0.2065 0.8561 0.0000
vt 0.0326 0.7778 0.0000
vt 0.0326 0.8170 0.0000
vt 0.0326 0.8946 0.0000
vt 0.0326 0.9323 0.0000
vt 0.0326 0.8561 0.0000
# 60 texture coords

o Box017
g Box017
usemtl 03___Default
s 4
f 1/1/1 2/2/2 3/3/3 4/4/4 
s 8
f 5/5/5 6/6/6 2/7/2 1/8/1 
s 16
f 6/9/6 7/10/7 3/3/3 2/2/2 
s 32
f 7/10/7 8/11/8 4/12/4 3/3/3 
s 64
f 8/11/8 5/5/5 1/8/1 4/12/4 
s 16
f 9/13/9 10/14/10 11/15/11 12/16/2 
s 8
f 9/13/9 12/16/2 13/17/1 14/18/5 
s 4
f 13/17/1 12/16/2 11/15/11 15/19/12 
s 64
f 16/20/13 17/18/14 18/17/1 19/19/15 
s 4
f 20/15/16 19/19/15 18/17/1 21/16/2 
s 8
f 21/16/2 18/17/1 17/18/14 22/13/6 
s off
f 14/18/5 13/17/1 15/19/12 23/20/17 
f 21/16/2 22/13/6 24/14/18 20/15/16 
s 1
f 25/21/19 26/22/20 27/23/21 28/24/22 
s 2
f 26/25/20 29/26/23 30/27/24 27/28/21 
s 1
f 29/26/23 31/29/25 32/30/26 30/27/24 
s 2
f 31/29/25 25/21/19 28/24/22 32/30/26 
s 1
f 28/24/22 27/23/21 33/31/27 34/32/28 
s 2
f 27/28/21 30/27/24 35/33/29 33/34/27 
s 1
f 30/27/24 32/30/26 36/35/30 35/33/29 
s 2
f 32/30/26 28/24/22 34/32/28 36/35/30 
s 1
f 34/32/28 33/31/27 37/36/31 38/37/32 
s 2
f 33/34/27 35/33/29 39/38/33 37/39/31 
s 1
f 35/33/29 36/35/30 40/40/34 39/38/33 
s 2
f 36/35/30 34/32/28 38/37/32 40/40/34 
s 1
f 38/37/32 37/36/31 41/41/35 42/42/36 
s 2
f 37/39/31 39/38/33 43/43/37 41/44/35 
s 1
f 39/38/33 40/40/34 44/45/38 43/43/37 
s 2
f 40/40/34 38/37/32 42/42/36 44/45/38 
s 1
f 42/42/36 41/41/35 45/46/39 46/47/40 
s 2
f 41/44/35 43/43/37 47/48/41 45/49/39 
s 1
f 43/43/37 44/45/38 48/50/42 47/48/41 
s 2
f 44/45/38 42/42/36 46/47/40 48/50/42 
s 1
f 46/47/40 45/46/39 49/51/43 50/52/44 
s 2
f 45/49/39 47/48/41 51/53/45 49/54/43 
s 1
f 47/48/41 48/50/42 52/55/46 51/53/45 
s 2
f 48/50/42 46/47/40 50/52/44 52/55/46 
s 1
f 50/52/44 49/51/43 53/56/47 54/57/48 
s 2
f 49/54/43 51/53/45 55/58/49 53/59/47 
s 1
f 51/53/45 52/55/46 56/60/50 55/58/49 
s 2
f 52/55/46 50/52/44 54/57/48 56/60/50 
s 1
f 57/29/25 58/30/26 59/27/51 60/26/52 
s 2
f 60/26/52 59/27/51 61/28/21 62/25/20 
s 1
f 62/22/20 61/23/21 63/24/22 64/21/19 
s 2
f 64/21/19 63/24/22 58/30/26 57/29/25 
s 1
f 58/30/26 65/35/30 66/33/53 59/27/51 
s 2
f 59/27/51 66/33/53 67/34/54 61/28/21 
s 1
f 61/23/21 67/31/54 68/32/28 63/24/22 
s 2
f 63/24/22 68/32/28 65/35/30 58/30/26 
s 1
f 65/35/30 69/40/34 70/38/33 66/33/53 
s 2
f 66/33/53 70/38/33 71/39/31 67/34/54 
s 1
f 67/31/54 71/36/31 72/37/32 68/32/28 
s 2
f 68/32/28 72/37/32 69/40/34 65/35/30 
s 1
f 69/40/34 73/45/38 74/43/37 70/38/33 
s 2
f 70/38/33 74/43/37 75/44/35 71/39/31 
s 1
f 71/36/31 75/41/35 76/42/36 72/37/32 
s 2
f 72/37/32 76/42/36 73/45/38 69/40/34 
s 1
f 73/45/38 77/50/42 78/48/41 74/43/37 
s 2
f 74/43/37 78/48/41 79/49/55 75/44/35 
s 1
f 75/41/35 79/46/55 80/47/56 76/42/36 
s 2
f 76/42/36 80/47/56 77/50/42 73/45/38 
s 1
f 77/50/42 81/55/57 82/53/45 78/48/41 
s 2
f 78/48/41 82/53/45 83/54/43 79/49/55 
s 1
f 79/46/55 83/51/43 84/52/44 80/47/56 
s 2
f 80/47/56 84/52/44 81/55/57 77/50/42 
s 1
f 81/55/57 85/60/50 86/58/49 82/53/45 
s 2
f 82/53/45 86/58/49 87/59/47 83/54/43 
s 1
f 83/51/43 87/56/47 88/57/48 84/52/44 
s 2
f 84/52/44 88/57/48 85/60/50 81/55/57 
# 69 polygons

