# 3ds Max Wavefront OBJ Exporter v0.99 - (c)2007 guruware
# File Created: 20.07.2022 17:20:26

mtllib MAC_DESK.mtl

#
# object Box001
#

v  -35.0000 47.9674 17.5000
v  35.0000 47.9674 17.5000
v  35.0000 47.9674 -17.5000
v  -35.0000 47.9674 -17.5000
v  -35.0000 46.9674 17.5000
v  35.0000 46.9674 17.5000
v  35.0000 46.9674 -17.5000
v  -35.0000 46.9674 -17.5000
v  30.1684 46.2083 -14.3336
v  30.1684 46.2083 14.3336
v  -30.1684 46.2083 14.3336
v  -30.1684 46.2083 -14.3336
v  -33.1394 46.2083 17.0638
v  -30.1684 46.2083 17.0638
v  30.1684 46.2083 17.0638
v  33.1394 46.2083 17.0638
v  33.1394 47.2083 17.0638
v  -33.1394 47.2083 17.0638
v  33.1394 46.2083 14.3336
v  33.1394 46.2083 -14.3336
v  33.1394 46.2083 -17.0638
v  33.1394 47.2083 -17.0638
v  30.1684 46.2083 -17.0638
v  -30.1684 46.2083 -17.0638
v  -33.1394 46.2083 -17.0638
v  -33.1394 47.2083 -17.0638
v  -33.1394 46.2083 -14.3336
v  -33.1394 46.2083 14.3336
v  30.1684 0.0000 17.0638
v  33.1394 0.0000 17.0638
v  30.1684 0.0000 14.3336
v  33.1394 0.0000 14.3336
v  33.1394 0.0000 -14.3336
v  33.1394 0.0000 -17.0638
v  30.1684 0.0000 -14.3336
v  30.1684 0.0000 -17.0638
v  -30.1684 0.0000 -17.0638
v  -33.1394 0.0000 -17.0638
v  -30.1684 0.0000 -14.3336
v  -33.1394 0.0000 -14.3336
v  -33.1394 0.0000 14.3336
v  -33.1394 0.0000 17.0638
v  -30.1684 0.0000 14.3336
v  -30.1684 0.0000 17.0638
# 44 vertices

vn -0.5774 0.5774 0.5774
vn 0.5774 0.5774 0.5774
vn 0.5774 0.5774 -0.5774
vn -0.5774 0.5774 -0.5774
vn -0.7071 0.0000 0.7071
vn 0.7071 0.0000 0.7071
vn 0.7071 0.0000 -0.7071
vn -0.7071 0.0000 -0.7071
vn -0.3015 -0.9045 0.3015
vn -0.3015 -0.9045 -0.3015
vn 0.3015 -0.9045 -0.3015
vn 0.3015 -0.9045 0.3015
vn -0.7071 -0.0000 0.7071
vn 0.3015 -0.3015 0.9045
vn -0.3015 -0.3015 0.9045
vn 0.7071 -0.0000 0.7071
vn 0.9045 -0.3015 -0.3015
vn 0.9045 -0.3015 0.3015
vn 0.7071 -0.0000 -0.7071
vn -0.3015 -0.3015 -0.9045
vn 0.3015 -0.3015 -0.9045
vn -0.7071 -0.0000 -0.7071
vn -0.9045 -0.3015 0.3015
vn -0.9045 -0.3015 -0.3015
# 24 vertex normals

vt 0.0746 0.1051 0.0000
vt 0.6817 0.1051 0.0000
vt 0.6817 0.4130 0.0000
vt 0.0746 0.4130 0.0000
vt 0.0249 0.0774 0.0000
vt 0.7314 0.0774 0.0000
vt 0.7314 0.4407 0.0000
vt 0.0249 0.4407 0.0000
vt 0.0608 0.7965 0.0000
vt 0.0608 0.5050 0.0000
vt 0.6838 0.5050 0.0000
vt 0.6838 0.7965 0.0000
vt 0.7145 0.4773 0.0000
vt 0.6838 0.4773 0.0000
vt 0.0608 0.4773 0.0000
vt 0.0302 0.4773 0.0000
vt 0.0253 0.4723 0.0000
vt 0.7194 0.4723 0.0000
vt 0.0302 0.5050 0.0000
vt 0.0302 0.7965 0.0000
vt 0.0302 0.8243 0.0000
vt 0.0253 0.8292 0.0000
vt 0.0608 0.8243 0.0000
vt 0.6838 0.8243 0.0000
vt 0.7145 0.8243 0.0000
vt 0.7194 0.8292 0.0000
vt 0.7145 0.7965 0.0000
vt 0.7145 0.5050 0.0000
vt 0.7772 0.4822 0.0000
vt 0.7494 0.4822 0.0000
vt 0.7494 0.0163 0.0000
vt 0.7772 0.0163 0.0000
vt 0.8607 0.4822 0.0000
vt 0.8329 0.4822 0.0000
vt 0.8329 0.0163 0.0000
vt 0.8607 0.0163 0.0000
vt 0.8050 0.4822 0.0000
vt 0.8050 0.0163 0.0000
vt 0.8100 0.9753 0.0000
vt 0.7823 0.9753 0.0000
vt 0.7823 0.5117 0.0000
vt 0.8100 0.5117 0.0000
vt 0.7546 0.9753 0.0000
vt 0.7546 0.5117 0.0000
vt 0.8654 0.9753 0.0000
vt 0.8377 0.9753 0.0000
vt 0.8377 0.5117 0.0000
vt 0.8654 0.5117 0.0000
vt 0.9623 0.4924 0.0000
vt 0.9338 0.4924 0.0000
vt 0.9338 0.0161 0.0000
vt 0.9623 0.0161 0.0000
vt 0.9053 0.4924 0.0000
vt 0.9053 0.0161 0.0000
vt 0.8769 0.4924 0.0000
vt 0.8769 0.0161 0.0000
vt 0.9907 0.4924 0.0000
vt 0.9907 0.0161 0.0000
vt 0.9895 0.9766 0.0000
vt 0.9616 0.9766 0.0000
vt 0.9616 0.5105 0.0000
vt 0.9895 0.5105 0.0000
vt 0.9338 0.9766 0.0000
vt 0.9338 0.5105 0.0000
vt 0.9060 0.9766 0.0000
vt 0.9060 0.5105 0.0000
vt 0.8781 0.9766 0.0000
vt 0.8781 0.5105 0.0000
# 68 texture coords

o Box001
g Box001
usemtl 02___Default
s 4
f 1/1/1 2/2/2 3/3/3 4/4/4 
s 8
f 5/5/5 6/6/6 2/2/2 1/1/1 
s 16
f 6/6/6 7/7/7 3/3/3 2/2/2 
s 32
f 7/7/7 8/8/8 4/4/4 3/3/3 
s 64
f 8/8/8 5/5/5 1/1/1 4/4/4 
s 2
f 9/9/9 10/10/10 11/11/11 12/12/12 
s 8
f 13/13/13 14/14/14 15/15/15 16/16/16 17/17/6 18/18/5 
s 16
f 16/16/16 19/19/17 20/20/18 21/21/19 22/22/7 17/17/6 
s 32
f 21/21/19 23/23/20 24/24/21 25/25/22 26/26/8 22/22/7 
s 64
f 25/25/22 27/27/23 28/28/24 13/13/13 18/18/5 26/26/8 
s 2
f 20/20/18 19/19/17 10/10/10 9/9/9 
f 28/28/24 27/27/23 12/12/12 11/11/11 
f 10/10/10 15/15/15 14/14/14 11/11/11 
f 12/12/12 24/24/21 23/23/20 9/9/9 
s off
f 16/29/16 15/30/15 29/31/5 30/32/16 
f 15/33/15 10/34/10 31/35/8 29/36/5 
f 10/34/10 19/37/17 32/38/19 31/35/8 
f 19/37/17 16/29/16 30/32/16 32/38/19 
f 21/39/19 20/40/18 33/41/16 34/42/19 
f 20/40/18 9/43/9 35/44/5 33/41/16 
f 9/45/9 23/46/20 36/47/8 35/48/5 
f 23/46/20 21/39/19 34/42/19 36/47/8 
f 25/49/22 24/50/21 37/51/7 38/52/22 
f 24/50/21 12/53/12 39/54/6 37/51/7 
f 12/53/12 27/55/23 40/56/13 39/54/6 
f 27/57/23 25/49/22 38/52/22 40/58/13 
f 13/59/13 28/60/24 41/61/22 42/62/13 
f 28/60/24 11/63/11 43/64/7 41/61/22 
f 11/63/11 14/65/14 44/66/6 43/64/7 
f 14/65/14 13/67/13 42/68/13 44/66/6 
# 30 polygons

