# 3ds Max Wavefront OBJ Exporter v0.99 - (c)2007 guruware
# File Created: 20.07.2022 22:33:29

mtllib Mac_Wardrobe_L.mtl

#
# object Box002
#

v  -29.9265 250.0000 20.9178
v  0.0735 250.0000 20.9178
v  0.0735 250.0000 -19.0822
v  -29.9265 250.0000 -19.0822
v  -29.9265 0.0000 20.9178
v  0.0735 0.0000 20.9178
v  0.0735 125.0000 20.9178
v  -29.9265 125.0000 20.9178
v  30.0735 0.0000 20.9178
v  30.0735 0.0000 -19.0822
v  30.0735 125.0000 -19.0822
v  30.0735 125.0000 20.9178
v  29.7319 0.3417 -20.0378
v  0.4152 0.3417 -20.0378
v  0.4152 124.6583 -20.0378
v  29.7319 124.6583 -20.0378
v  -29.9265 0.0000 -19.0822
v  -29.9265 125.0000 -19.0822
v  30.0735 250.0000 20.9178
v  30.0735 250.0000 -19.0822
v  -0.2681 0.3417 -20.0378
v  -29.5848 0.3417 -20.0378
v  -29.5848 124.6583 -20.0378
v  -0.2681 124.6583 -20.0378
v  0.4152 125.3417 -20.0378
v  0.4152 249.6583 -20.0378
v  29.7319 249.6583 -20.0378
v  29.7319 125.3417 -20.0378
v  -29.5848 125.3417 -20.0378
v  -29.5848 249.6583 -20.0378
v  -0.2681 249.6583 -20.0378
v  -0.2681 125.3417 -20.0378
v  0.0735 0.0000 -19.0822
v  0.4152 0.3417 -19.0822
v  29.7319 0.3417 -19.0822
v  0.0735 125.0000 -19.0822
v  0.4152 124.6583 -19.0822
v  29.7319 124.6583 -19.0822
v  -29.5848 0.3417 -19.0822
v  -0.2681 0.3417 -19.0822
v  -29.5848 124.6583 -19.0822
v  -0.2681 124.6583 -19.0822
v  0.4152 249.6583 -19.0822
v  0.4152 125.3417 -19.0822
v  29.7319 249.6583 -19.0822
v  29.7319 125.3417 -19.0822
v  -29.5848 249.6583 -19.0822
v  -29.5848 125.3417 -19.0822
v  -0.2681 249.6583 -19.0822
v  -0.2681 125.3417 -19.0822
v  -6.1942 123.6194 -20.0086
v  -6.1942 123.6194 -20.9178
v  -6.1942 113.6655 -20.9178
v  -6.1942 113.6655 -20.0086
v  -1.0366 113.6655 -20.0086
v  -1.0366 113.6655 -20.9178
v  -1.0366 123.6194 -20.9178
v  -1.0366 123.6194 -20.0086
v  -3.2152 123.1897 -20.9178
v  -3.2152 114.0561 -20.9178
v  -3.2152 114.0561 -20.6972
v  -3.2152 123.1897 -20.6972
v  -5.8020 114.0561 -20.1303
v  -5.8020 114.0561 -20.9178
v  -5.8020 123.1897 -20.9178
v  -5.8020 123.1897 -20.1303
v  -1.4069 114.0561 -20.1303
v  -1.4069 123.1897 -20.1303
v  -1.4069 114.0561 -20.6972
v  -1.4069 123.1897 -20.6972
v  6.3413 123.6194 -20.0086
v  6.3413 113.6655 -20.0086
v  6.3413 113.6655 -20.9178
v  6.3413 123.6194 -20.9178
v  1.1836 113.6655 -20.0086
v  1.1836 123.6194 -20.0086
v  1.1836 123.6194 -20.9178
v  1.1836 113.6655 -20.9178
v  3.3623 123.1897 -20.9178
v  3.3623 123.1897 -20.6972
v  3.3623 114.0561 -20.6972
v  3.3623 114.0561 -20.9178
v  5.9491 114.0561 -20.1303
v  5.9491 123.1897 -20.1303
v  5.9491 123.1897 -20.9178
v  5.9491 114.0561 -20.9178
v  1.5540 114.0561 -20.1303
v  1.5540 123.1897 -20.1303
v  1.5540 123.1897 -20.6972
v  1.5540 114.0561 -20.6972
v  -6.1942 126.2192 -20.0086
v  -6.1942 136.1731 -20.0086
v  -6.1942 136.1731 -20.9178
v  -6.1942 126.2192 -20.9178
v  -1.0366 136.1731 -20.0086
v  -1.0366 136.1731 -20.9178
v  -1.0366 126.2192 -20.0086
v  -1.0366 126.2192 -20.9178
v  -3.2152 126.6490 -20.9178
v  -3.2152 126.6490 -20.6972
v  -3.2152 135.7825 -20.6972
v  -3.2152 135.7825 -20.9178
v  -5.8020 135.7825 -20.1303
v  -5.8020 126.6490 -20.1303
v  -5.8020 126.6490 -20.9178
v  -5.8020 135.7825 -20.9178
v  -1.4069 135.7825 -20.1303
v  -1.4069 126.6490 -20.1303
v  -1.4069 126.6490 -20.6972
v  -1.4069 135.7825 -20.6972
v  6.3413 126.2192 -20.0086
v  6.3413 126.2192 -20.9178
v  6.3413 136.1731 -20.9178
v  6.3413 136.1731 -20.0086
v  1.1836 136.1731 -20.0086
v  1.1836 136.1731 -20.9178
v  1.1836 126.2192 -20.9178
v  1.1836 126.2192 -20.0086
v  3.3623 126.6490 -20.9178
v  3.3623 135.7825 -20.9178
v  3.3623 135.7825 -20.6972
v  3.3623 126.6490 -20.6972
v  5.9491 135.7825 -20.1303
v  5.9491 135.7825 -20.9178
v  5.9491 126.6490 -20.9178
v  5.9491 126.6490 -20.1303
v  1.5540 135.7825 -20.1303
v  1.5540 126.6490 -20.1303
v  1.5540 135.7825 -20.6972
v  1.5540 126.6490 -20.6972
v  -30.0735 244.3703 -20.3942
v  -30.0735 248.2216 -20.3942
v  -26.6612 248.2216 -20.3942
v  -26.6612 244.3703 -20.3942
v  -30.0735 244.3703 -17.1908
v  -30.0735 248.2216 -17.1908
v  -26.6612 248.2216 -19.9058
v  -26.6612 244.3703 -19.9058
v  -29.5108 248.2216 -19.9058
v  -29.5108 248.2216 -17.1908
v  -29.5108 244.3703 -17.1908
v  -30.0735 239.6753 -20.3942
v  -30.0735 243.5266 -20.3942
v  -26.6612 243.5266 -20.3942
v  -26.6612 239.6753 -20.3942
v  -30.0735 239.6753 -17.1908
v  -30.0735 243.5266 -17.1908
v  -26.6612 243.5266 -19.9058
v  -26.6612 239.6753 -19.9058
v  -29.5108 243.5266 -19.9058
v  -29.5108 243.5266 -17.1908
v  -29.5108 239.6753 -17.1908
v  -30.0735 234.9804 -20.3942
v  -30.0735 238.8316 -20.3942
v  -26.6612 238.8316 -20.3942
v  -26.6612 234.9804 -20.3942
v  -30.0735 234.9804 -17.1908
v  -30.0735 238.8316 -17.1908
v  -26.6612 238.8316 -19.9058
v  -26.6612 234.9804 -19.9058
v  -29.5108 238.8316 -19.9058
v  -29.5108 238.8316 -17.1908
v  -29.5108 234.9804 -17.1908
# 163 vertices

vn -0.5774 0.5774 0.5774
vn 0.0000 0.7071 0.7071
vn 0.0000 0.7071 -0.7071
vn -0.5774 0.5774 -0.5774
vn -0.7071 0.0000 0.7071
vn 0.0000 0.0000 1.0000
vn 0.7071 0.0000 0.7071
vn 0.7071 0.0000 -0.7071
vn 0.5774 -0.5774 -0.5773
vn -0.5774 -0.5774 -0.5773
vn 0.5774 0.5774 -0.5774
vn -0.7071 0.0000 -0.7071
vn 0.5774 0.5774 0.5774
vn -0.5774 -0.5774 -0.5774
vn 0.5774 -0.5774 -0.5774
vn 0.0000 0.0000 -1.0000
vn -0.3015 -0.3015 -0.9045
vn 0.3015 -0.3015 -0.9045
vn -0.3015 0.3015 -0.9045
vn 0.3015 0.3015 -0.9045
vn -0.7071 0.7071 -0.0000
vn -1.0000 0.0000 -0.0000
vn 1.0000 0.0000 -0.0000
vn 0.7071 0.7071 -0.0000
vn -0.5774 -0.5774 0.5774
vn 0.0000 -0.7071 -0.7071
vn 0.0000 -0.7071 0.7071
vn 0.5774 -0.5774 0.5774
vn 0.0000 1.0000 -0.0000
# 29 vertex normals

vt 0.3560 0.8859 0.0000
vt 0.4121 0.8869 0.0000
vt 0.4108 0.9616 0.0000
vt 0.3547 0.9607 0.0000
vt 0.9378 0.7839 0.0000
vt 0.9368 0.8400 0.0000
vt 0.7030 0.8357 0.0000
vt 0.7039 0.7796 0.0000
vt 0.9357 0.8960 0.0000
vt 0.9344 0.9708 0.0000
vt 0.7006 0.9666 0.0000
vt 0.7020 0.8918 0.0000
vt 0.9405 0.5931 0.0000
vt 0.9394 0.6477 0.0000
vt 0.7075 0.6434 0.0000
vt 0.7084 0.5888 0.0000
vt 0.9393 0.7091 0.0000
vt 0.7053 0.7048 0.0000
vt 0.4682 0.8878 0.0000
vt 0.4669 0.9626 0.0000
vt 0.9393 0.6522 0.0000
vt 0.9383 0.7068 0.0000
vt 0.7064 0.7025 0.0000
vt 0.7074 0.6479 0.0000
vt 0.4691 0.8317 0.0000
vt 0.4700 0.7757 0.0000
vt 0.7052 0.6433 0.0000
vt 0.4732 0.6395 0.0000
vt 0.4741 0.5849 0.0000
vt 0.7062 0.5887 0.0000
vt 0.4712 0.7009 0.0000
vt 0.7042 0.7025 0.0000
vt 0.4723 0.6986 0.0000
vt 0.4731 0.6440 0.0000
vt 0.7051 0.6479 0.0000
vt 0.9416 0.5908 0.0000
vt 0.9405 0.6500 0.0000
vt 0.9399 0.6493 0.0000
vt 0.9410 0.5915 0.0000
vt 0.7063 0.6456 0.0000
vt 0.7069 0.6450 0.0000
vt 0.7073 0.5865 0.0000
vt 0.7080 0.5871 0.0000
vt 0.9387 0.7085 0.0000
vt 0.9399 0.6506 0.0000
vt 0.7059 0.7041 0.0000
vt 0.7069 0.6463 0.0000
vt 0.4721 0.6417 0.0000
vt 0.4727 0.6411 0.0000
vt 0.7057 0.6450 0.0000
vt 0.4730 0.5826 0.0000
vt 0.4737 0.5832 0.0000
vt 0.7067 0.5871 0.0000
vt 0.4718 0.7002 0.0000
vt 0.7046 0.7041 0.0000
vt 0.4727 0.6424 0.0000
vt 0.7056 0.6463 0.0000
vt 0.1475 0.2900 0.0000
vt 0.1536 0.3090 0.0000
vt 0.2626 0.2732 0.0000
vt 0.1375 0.2206 0.0000
vt 0.2904 0.3589 0.0000
vt 0.2843 0.3399 0.0000
vt 0.1753 0.3757 0.0000
vt 0.1814 0.3947 0.0000
vt 0.1291 0.3160 0.0000
vt 0.0134 0.3160 0.0000
vt 0.0134 0.3213 0.0000
vt 0.1291 0.3213 0.0000
vt 0.2323 0.1660 0.0000
vt 0.2438 0.1539 0.0000
vt 0.1248 0.1253 0.0000
vt 0.1293 0.1424 0.0000
vt 0.2235 0.2294 0.0000
vt 0.1081 0.1983 0.0000
vt 0.0134 0.3483 0.0000
vt 0.1291 0.3483 0.0000
vt 0.0729 0.2246 0.0000
vt 0.0385 0.2933 0.0000
vt 0.1039 0.1611 0.0000
vt 0.2373 0.2279 0.0000
vt 0.2376 0.1981 0.0000
vt 0.2428 0.1980 0.0000
vt 0.2600 0.2797 0.0000
vt 0.1600 0.3126 0.0000
vt 0.1708 0.3460 0.0000
vt 0.2709 0.3131 0.0000
vt 0.3009 0.2454 0.0000
vt 0.4220 0.2454 0.0000
vt 0.4220 0.2242 0.0000
vt 0.3009 0.2242 0.0000
vt 0.4220 0.1290 0.0000
vt 0.3009 0.1290 0.0000
vt 0.3009 0.1502 0.0000
vt 0.4220 0.1501 0.0000
vt 0.1464 0.6520 0.0000
vt 0.1464 0.6470 0.0000
vt 0.0387 0.6470 0.0000
vt 0.0387 0.6520 0.0000
vt 0.1754 0.8334 0.0000
vt 0.0388 0.8310 0.0000
vt 0.0279 0.8512 0.0000
vt 0.1860 0.8522 0.0000
vt 0.1840 0.7514 0.0000
vt 0.0301 0.7528 0.0000
vt 0.1464 0.6218 0.0000
vt 0.0387 0.6218 0.0000
vt 0.0221 0.7954 0.0000
vt 0.0156 0.7971 0.0000
vt 0.0133 0.7586 0.0000
vt 0.1985 0.7967 0.0000
vt 0.1920 0.7949 0.0000
vt 0.2008 0.7575 0.0000
vt 0.4173 0.2186 0.0000
vt 0.3061 0.2186 0.0000
vt 0.3061 0.1814 0.0000
vt 0.4173 0.1814 0.0000
vt 0.1512 0.5885 0.0000
vt 0.0198 0.6023 0.0000
vt 0.0311 0.6164 0.0000
vt 0.1530 0.6111 0.0000
vt 0.0197 0.6993 0.0000
vt 0.0325 0.6839 0.0000
vt 0.1499 0.7128 0.0000
vt 0.1525 0.6912 0.0000
vt 0.3572 0.3817 0.0000
vt 0.3572 0.3868 0.0000
vt 0.4679 0.3868 0.0000
vt 0.4679 0.3817 0.0000
vt 0.3251 0.2838 0.0000
vt 0.4468 0.2859 0.0000
vt 0.4565 0.2679 0.0000
vt 0.3156 0.2670 0.0000
vt 0.3174 0.3569 0.0000
vt 0.4545 0.3556 0.0000
vt 0.3572 0.4127 0.0000
vt 0.4679 0.4127 0.0000
vt 0.4617 0.3177 0.0000
vt 0.4675 0.3161 0.0000
vt 0.4695 0.3504 0.0000
vt 0.3045 0.3165 0.0000
vt 0.3103 0.3181 0.0000
vt 0.3024 0.3514 0.0000
vt 0.0360 0.6214 0.0000
vt 0.1478 0.6173 0.0000
vt 0.1475 0.6573 0.0000
vt 0.0370 0.6554 0.0000
vt 0.2932 0.7113 0.0000
vt 0.2947 0.6923 0.0000
vt 0.1923 0.6879 0.0000
vt 0.1829 0.6997 0.0000
vt 0.1828 0.6182 0.0000
vt 0.1936 0.6311 0.0000
vt 0.2944 0.6250 0.0000
vt 0.2922 0.6069 0.0000
vt 0.3162 0.6835 0.0000
vt 0.4239 0.6835 0.0000
vt 0.4239 0.6786 0.0000
vt 0.3162 0.6786 0.0000
vt 0.2672 0.8433 0.0000
vt 0.2565 0.8620 0.0000
vt 0.4146 0.8611 0.0000
vt 0.4037 0.8408 0.0000
vt 0.2585 0.7612 0.0000
vt 0.4124 0.7626 0.0000
vt 0.4239 0.6534 0.0000
vt 0.3162 0.6534 0.0000
vt 0.4204 0.8052 0.0000
vt 0.4292 0.7685 0.0000
vt 0.4269 0.8069 0.0000
vt 0.2417 0.7673 0.0000
vt 0.2505 0.8048 0.0000
vt 0.2440 0.8065 0.0000
vt 0.1965 0.6837 0.0000
vt 0.2904 0.6871 0.0000
vt 0.2902 0.6535 0.0000
vt 0.1973 0.6551 0.0000
vt 0.1178 0.2235 0.0000
vt 0.1278 0.2929 0.0000
vt 0.0536 0.2150 0.0000
vt 0.0193 0.2834 0.0000
vt 0.7473 0.1728 0.0000
vt 0.7465 0.4899 0.0000
vt 0.5504 0.5047 0.0000
vt 0.5273 0.1785 0.0000
vt 0.9027 0.1755 0.0000
vt 0.8806 0.4961 0.0000
vt 0.5331 0.5164 0.0000
vt 0.5042 0.1806 0.0000
vt 0.7368 0.5146 0.0000
vt 0.9050 0.5158 0.0000
vt 0.9392 0.1787 0.0000
# 192 texture coords

o Box002
g Box002
usemtl 02___Default
s 4
f 1/1/1 2/2/2 3/3/3 4/4/4 
s 8
f 5/5/5 6/6/6 7/7/6 8/8/5 
s 16
f 9/9/7 10/10/8 11/11/8 12/12/7 
s 32
f 13/13/9 14/14/10 15/15/4 16/16/11 
s 64
f 17/17/12 5/5/5 8/8/5 18/18/12 
s 4
f 2/2/2 19/19/13 20/20/11 3/3/3 
s 8
f 6/6/6 9/9/7 12/12/7 7/7/6 
s 32
f 21/21/9 22/22/10 23/23/4 24/24/11 
s 8
f 7/7/6 2/25/2 1/26/1 8/8/5 
s 16
f 11/11/8 20/20/11 19/19/13 12/12/7 
s 32
f 25/27/14 26/28/4 27/29/11 28/30/15 
s 64
f 8/8/5 1/26/1 4/31/4 18/18/12 
s 8
f 12/12/7 19/19/13 2/25/2 7/7/6 
s 32
f 29/32/14 30/33/4 31/34/11 32/35/15 
s off
f 10/36/8 33/37/16 34/38/17 35/39/18 
f 33/37/16 36/40/16 37/41/19 34/38/17 
f 36/40/16 11/42/8 38/43/20 37/41/19 
f 11/42/8 10/36/8 35/39/18 38/43/20 
f 33/37/16 17/17/12 39/44/17 40/45/18 
f 17/17/12 18/18/12 41/46/19 39/44/17 
f 18/18/12 36/40/16 42/47/20 41/46/19 
f 36/40/16 33/37/16 40/45/18 42/47/20 
f 36/40/16 3/48/3 43/49/19 44/50/17 
f 3/48/3 20/51/11 45/52/20 43/49/19 
f 20/51/11 11/42/8 46/53/18 45/52/20 
f 11/42/8 36/40/16 44/50/17 46/53/18 
f 18/18/12 4/31/4 47/54/19 48/55/17 
f 4/31/4 3/48/3 49/56/20 47/54/19 
f 3/48/3 36/40/16 50/57/18 49/56/20 
f 36/40/16 18/18/12 48/55/17 50/57/18 
f 35/39/18 34/38/17 14/14/10 13/13/9 
f 34/38/17 37/41/19 15/15/4 14/14/10 
f 37/41/19 38/43/20 16/16/11 15/15/4 
f 38/43/20 35/39/18 13/13/9 16/16/11 
f 40/45/18 39/44/17 22/22/10 21/21/9 
f 39/44/17 41/46/19 23/23/4 22/22/10 
f 41/46/19 42/47/20 24/24/11 23/23/4 
f 42/47/20 40/45/18 21/21/9 24/24/11 
f 44/50/17 43/49/19 26/28/4 25/27/14 
f 43/49/19 45/52/20 27/29/11 26/28/4 
f 45/52/20 46/53/18 28/30/15 27/29/11 
f 46/53/18 44/50/17 25/27/14 28/30/15 
f 48/55/17 47/54/19 30/33/4 29/32/14 
f 47/54/19 49/56/20 31/34/11 30/33/4 
f 49/56/20 50/57/18 32/35/15 31/34/11 
f 50/57/18 48/55/17 29/32/14 32/35/15 
s 8
f 51/58/21 52/59/4 53/60/12 54/61/22 
s 32
f 55/62/23 56/63/8 57/64/11 58/65/24 
s off
f 59/66/17 60/67/19 61/68/25 62/69/1 
f 63/70/11 64/71/20 65/72/18 66/73/15 
s 2
f 67/74/3 63/70/11 66/73/15 68/75/26 
s off
f 62/69/1 61/68/25 69/76/2 70/77/27 
f 62/78/1 70/79/27 68/75/26 66/73/15 65/72/18 59/80/17 
f 67/74/3 69/81/2 61/82/25 60/83/19 64/71/20 63/70/11 
s 1
f 64/84/20 53/60/12 52/59/4 65/85/18 
s 2
f 57/64/11 59/86/17 65/85/18 52/59/4 
s 1
f 59/86/17 57/64/11 56/63/8 60/87/19 
s 2
f 53/60/12 64/84/20 60/87/19 56/63/8 
s 8
f 71/88/24 72/89/23 73/90/8 74/91/11 
s 32
f 75/92/22 76/93/21 77/94/4 78/95/12 
s off
f 79/96/18 80/97/13 81/98/28 82/99/20 
f 83/100/4 84/101/14 85/102/17 86/103/19 
s 2
f 87/104/3 88/105/26 84/101/14 83/100/4 
s off
f 80/97/13 89/106/27 90/107/2 81/98/28 
f 80/108/13 79/109/18 85/102/17 84/101/14 88/105/26 89/110/27 
f 87/104/3 83/100/4 86/103/19 82/111/20 81/112/28 90/113/2 
s 1
f 86/114/19 85/115/17 74/91/11 73/90/8 
s 2
f 77/94/4 74/91/11 85/115/17 79/116/18 
s 1
f 79/116/18 82/117/20 78/95/12 77/94/4 
s 2
f 73/90/8 78/95/12 82/117/20 86/114/19 
s 8
f 91/118/22 92/119/21 93/120/4 94/121/12 
s 16
f 95/122/24 96/123/11 93/120/4 92/119/21 
s 32
f 95/122/24 97/124/23 98/125/8 96/123/11 
s off
f 99/126/19 100/127/25 101/128/1 102/129/17 
f 103/130/15 104/131/11 105/132/20 106/133/18 
s 2
f 107/134/26 108/135/3 104/131/11 103/130/15 
s off
f 100/127/25 109/136/2 110/137/27 101/128/1 
f 100/138/25 99/139/19 105/132/20 104/131/11 108/135/3 109/140/2 
f 107/134/26 103/130/15 106/133/18 102/141/17 101/142/1 110/143/27 
s 1
f 106/144/18 105/145/20 94/121/12 93/120/4 
s 2
f 98/125/8 94/121/12 105/145/20 99/146/19 
s 1
f 99/146/19 102/147/17 96/123/11 98/125/8 
s 2
f 93/120/4 96/123/11 102/147/17 106/144/18 
s 8
f 111/148/23 112/149/8 113/150/11 114/151/24 
s 16
f 115/152/21 114/151/24 113/150/11 116/153/4 
s 32
f 115/152/21 116/153/4 117/154/12 118/155/22 
s off
f 119/156/20 120/157/18 121/158/13 122/159/28 
f 123/160/14 124/161/17 125/162/19 126/163/4 
s 2
f 127/164/26 123/160/14 126/163/4 128/165/3 
s off
f 122/159/28 121/158/13 129/166/27 130/167/2 
f 122/168/28 130/169/2 128/165/3 126/163/4 125/162/19 119/170/20 
f 127/164/26 129/171/27 121/172/13 120/173/18 124/161/17 123/160/14 
s 1
f 124/174/17 113/150/11 112/149/8 125/175/19 
s 2
f 117/154/12 119/176/20 125/175/19 112/149/8 
s 1
f 119/176/20 117/154/12 116/153/4 120/177/18 
s 2
f 113/150/11 124/174/17 120/177/18 116/153/4 
s 4
f 57/178/11 52/179/4 51/58/21 58/61/24 
f 76/180/21 71/181/24 74/79/11 77/78/4 
s 1
f 131/182/12 132/183/4 133/184/11 134/185/8 
s off
f 132/183/4 131/182/12 135/186/5 136/187/1 
f 134/185/8 133/184/11 137/188/24 138/189/23 
f 133/184/11 132/183/4 139/190/29 137/188/24 
f 132/183/4 136/187/1 140/191/2 139/190/29 
f 136/187/1 135/186/5 141/192/6 140/191/2 
s 1
f 142/182/12 143/183/4 144/184/11 145/185/8 
s off
f 143/183/4 142/182/12 146/186/5 147/187/1 
f 145/185/8 144/184/11 148/188/24 149/189/23 
f 144/184/11 143/183/4 150/190/29 148/188/24 
f 143/183/4 147/187/1 151/191/2 150/190/29 
f 147/187/1 146/186/5 152/192/6 151/191/2 
s 1
f 153/182/12 154/183/4 155/184/11 156/185/8 
s off
f 154/183/4 153/182/12 157/186/5 158/187/1 
f 156/185/8 155/184/11 159/188/24 160/189/23 
f 155/184/11 154/183/4 161/190/29 159/188/24 
f 154/183/4 158/187/1 162/191/2 161/190/29 
f 158/187/1 157/186/5 163/192/6 162/191/2 
# 116 polygons

