# 3ds Max Wavefront OBJ Exporter v0.99 - (c)2007 guruware
# File Created: 16.07.2022 23:39:39

mtllib COMPUTER.mtl

#
# object Box006
#

v  -120.1780 59.7178 113.0439
v  -120.1780 59.7178 100.3881
v  -120.1780 59.9725 100.3881
v  -120.1780 59.9725 113.0439
v  -128.4565 59.7178 100.3881
v  -128.4565 59.9725 100.3881
v  -128.4565 59.7178 113.0439
v  -128.4565 59.9725 113.0439
v  -125.4542 61.2157 104.6085
v  -125.4542 61.2157 108.8235
v  -126.5987 61.2157 104.6085
v  -126.5987 61.2157 108.8236
v  -125.4542 66.2505 104.6085
v  -125.4542 66.2505 108.8235
v  -126.5987 66.2505 104.6085
v  -126.5987 66.2505 108.8236
v  -125.4215 67.4331 104.6085
v  -125.4215 67.4331 108.8235
v  -126.4588 67.9168 104.6085
v  -126.4588 67.9168 108.8236
v  -124.9091 68.2976 104.6085
v  -124.9091 68.2976 108.8235
v  -125.6447 69.6011 104.6085
v  -125.6447 69.6011 108.8236
v  -124.4846 68.2963 104.6085
v  -124.4846 68.2963 108.8235
v  -124.4846 70.5516 104.6085
v  -124.4846 70.5516 108.8235
v  -124.4846 68.6473 105.2645
v  -124.4846 68.6473 108.1676
v  -124.4846 70.2006 105.2645
v  -124.4846 70.2006 108.1676
v  -124.2586 68.6473 105.2645
v  -124.2586 68.6473 108.1500
v  -124.2586 70.2006 105.2469
v  -124.2586 70.2006 108.1500
v  -123.3696 65.7002 99.7565
v  -123.3696 65.7002 113.6580
v  -123.3696 75.4719 99.7389
v  -123.3696 75.4719 113.6580
v  -122.0185 63.7502 96.1120
v  -122.0185 63.7502 117.3024
v  -122.0185 77.4219 96.0945
v  -122.0185 77.4219 117.3024
v  -121.6571 63.7502 96.1120
v  -121.6571 63.7502 117.3200
v  -121.6571 77.4219 96.1121
v  -121.6571 77.4219 117.3200
v  -121.6571 64.4181 96.9883
v  -121.6571 64.4181 116.4437
v  -121.6571 76.7540 96.9883
v  -121.6571 76.7540 116.4437
v  -122.0048 64.4181 96.9883
v  -122.0048 64.4181 116.4437
v  -122.0048 76.7540 96.9883
v  -122.0048 76.7540 116.4437
# 56 vertices

vn 0.7071 0.0000 0.7071
vn 0.7071 0.0000 -0.7071
vn 0.7007 0.1763 -0.6914
vn 0.7007 0.1763 0.6914
vn -0.7071 0.0000 -0.7071
vn -0.6896 0.1209 -0.7140
vn -0.7071 0.0000 0.7071
vn -0.6896 0.1209 0.7140
vn 0.6824 0.2081 -0.7007
vn 0.6824 0.2081 0.7007
vn -0.7199 0.1308 -0.6817
vn -0.7199 0.1308 0.6817
vn 0.7068 -0.0007 -0.7074
vn 0.7068 -0.0007 0.7074
vn -0.7078 0.0022 -0.7064
vn -0.7078 0.0022 0.7064
vn 0.7021 -0.0162 -0.7119
vn 0.7020 -0.0162 0.7120
vn -0.7103 0.0150 -0.7038
vn -0.7103 0.0150 0.7038
vn 0.2892 -0.3147 -0.9041
vn 0.2893 -0.3147 0.9040
vn -0.7117 0.0452 -0.7010
vn -0.7117 0.0452 0.7010
vn 0.5667 -0.5899 -0.5753
vn 0.5667 -0.5899 0.5753
vn 0.0383 0.8426 -0.5372
vn 0.0383 0.8426 0.5372
vn 0.9045 -0.3015 -0.3015
vn 0.9127 -0.2819 0.2957
vn 0.8961 0.3218 -0.3057
vn 0.9128 0.2819 0.2956
vn -0.8734 -0.3012 -0.3826
vn -0.8641 -0.3204 0.3882
vn -0.8825 0.2784 -0.3791
vn -0.8644 0.3171 0.3903
vn -0.9849 -0.0195 -0.1719
vn -0.9849 -0.0195 0.1721
vn -0.9852 0.0173 -0.1707
vn -0.9852 0.0173 0.1705
vn -0.5618 -0.5890 -0.5809
vn -0.5746 -0.5914 0.5658
vn -0.5487 0.5867 -0.5956
vn -0.5746 0.5914 0.5658
vn 0.5774 -0.5774 -0.5774
vn 0.5643 -0.5748 0.5926
vn 0.5899 0.5799 -0.5619
vn 0.5644 0.5748 0.5925
vn 0.9045 0.3015 0.3015
vn 0.9045 0.3015 -0.3015
vn 0.9045 -0.3015 0.3015
vn 0.5774 0.5774 0.5774
vn 0.5774 0.5774 -0.5774
vn 0.5774 -0.5774 0.5774
# 54 vertex normals

vt 0.7024 0.4625 0.0000
vt 0.8065 0.4614 0.0000
vt 0.8068 0.4894 0.0000
vt 0.7027 0.4905 0.0000
vt 0.8747 0.4608 0.0000
vt 0.8750 0.4887 0.0000
vt 0.9789 0.4597 0.0000
vt 0.9792 0.4877 0.0000
vt 0.6342 0.4632 0.0000
vt 0.6345 0.4911 0.0000
vt 0.8127 0.6259 0.0000
vt 0.6998 0.6271 0.0000
vt 0.8862 0.6252 0.0000
vt 0.9459 0.6246 0.0000
vt 0.6513 0.6275 0.0000
vt 0.4970 0.0666 0.0000
vt 0.5301 0.0666 0.0000
vt 0.5301 0.2851 0.0000
vt 0.4970 0.2851 0.0000
vt 0.5640 0.0666 0.0000
vt 0.5640 0.2851 0.0000
vt 0.5983 0.0666 0.0000
vt 0.5983 0.2851 0.0000
vt 0.4611 0.0666 0.0000
vt 0.4611 0.2851 0.0000
vt 0.5301 0.4583 0.0000
vt 0.4970 0.4583 0.0000
vt 0.5640 0.4583 0.0000
vt 0.5983 0.4583 0.0000
vt 0.4611 0.4583 0.0000
vt 0.5301 0.5917 0.0000
vt 0.4970 0.5917 0.0000
vt 0.5640 0.5917 0.0000
vt 0.5983 0.5917 0.0000
vt 0.4611 0.5917 0.0000
vt 0.5301 0.6248 0.0000
vt 0.4970 0.6248 0.0000
vt 0.5640 0.6248 0.0000
vt 0.5983 0.6248 0.0000
vt 0.4611 0.6248 0.0000
vt 0.9738 0.3851 0.0000
vt 0.9308 0.3851 0.0000
vt 0.9375 0.3373 0.0000
vt 0.9671 0.3373 0.0000
vt 0.9308 0.0782 0.0000
vt 0.9375 0.1260 0.0000
vt 0.9738 0.0782 0.0000
vt 0.9671 0.1260 0.0000
vt 0.9089 0.2601 0.0000
vt 0.9110 0.2205 0.0000
vt 0.9127 0.2190 0.0000
vt 0.9105 0.2616 0.0000
vt 0.6156 0.2049 0.0000
vt 0.6141 0.2031 0.0000
vt 0.6135 0.2445 0.0000
vt 0.6118 0.2459 0.0000
vt 0.2352 0.2654 0.0000
vt 0.1867 0.2656 0.0000
vt 0.1044 0.1379 0.0000
vt 0.3331 0.1372 0.0000
vt 0.1869 0.3330 0.0000
vt 0.1056 0.5619 0.0000
vt 0.2354 0.3328 0.0000
vt 0.3342 0.5611 0.0000
vt 0.0427 0.0535 0.0000
vt 0.3914 0.0523 0.0000
vt 0.0443 0.6466 0.0000
vt 0.3930 0.6454 0.0000
vt 0.6514 0.6810 0.0000
vt 0.6514 0.9845 0.0000
vt 0.6447 0.9595 0.0000
vt 0.6447 0.6930 0.0000
vt 0.0328 0.9845 0.0000
vt 0.0398 0.9595 0.0000
vt 0.0328 0.6810 0.0000
vt 0.0398 0.6930 0.0000
vt 0.6297 0.9429 0.0000
vt 0.6297 0.7085 0.0000
vt 0.0513 0.9429 0.0000
vt 0.0513 0.7085 0.0000
vt 0.6147 0.9235 0.0000
vt 0.6147 0.7245 0.0000
vt 0.0646 0.9235 0.0000
vt 0.0646 0.7245 0.0000
# 84 texture coords

o Box006
g Box006
usemtl wire_108008136
s 8
f 1/1/1 2/2/2 3/3/3 4/4/4 
s 16
f 2/2/2 5/5/5 6/6/6 3/3/3 
s 32
f 5/5/5 7/7/7 8/8/8 6/6/6 
s 64
f 7/9/7 1/1/1 4/4/4 8/10/8 
s 4
f 4/4/4 3/3/3 9/11/9 10/12/10 
f 3/3/3 6/6/6 11/13/11 9/11/9 
f 6/6/6 8/8/8 12/14/12 11/13/11 
f 8/10/8 4/4/4 10/12/10 12/15/12 
s 32
f 10/16/10 9/17/9 13/18/13 14/19/14 
s 8
f 9/17/9 11/20/11 15/21/15 13/18/13 
s 16
f 11/20/11 12/22/12 16/23/16 15/21/15 
s 8
f 12/24/12 10/16/10 14/19/14 16/25/16 
s 32
f 14/19/14 13/18/13 17/26/17 18/27/18 
s 8
f 13/18/13 15/21/15 19/28/19 17/26/17 
s 16
f 15/21/15 16/23/16 20/29/20 19/28/19 
s 8
f 16/25/16 14/19/14 18/27/18 20/30/20 
s 32
f 18/27/18 17/26/17 21/31/21 22/32/22 
s 8
f 17/26/17 19/28/19 23/33/23 21/31/21 
s 16
f 19/28/19 20/29/20 24/34/24 23/33/23 
s 8
f 20/30/20 18/27/18 22/32/22 24/35/24 
s 32
f 22/32/22 21/31/21 25/36/25 26/37/26 
s 8
f 21/31/21 23/33/23 27/38/27 25/36/25 
s 16
f 23/33/23 24/34/24 28/39/28 27/38/27 
s 8
f 24/35/24 22/32/22 26/37/26 28/40/28 
s 64
f 26/41/26 25/42/25 29/43/29 30/44/30 
f 25/42/25 27/45/27 31/46/31 29/43/29 
f 27/45/27 28/47/28 32/48/32 31/46/31 
f 28/47/28 26/41/26 30/44/30 32/48/32 
f 30/49/30 29/50/29 33/51/33 34/52/34 
f 29/50/29 31/53/31 35/54/35 33/51/33 
f 31/53/31 32/55/32 36/56/36 35/54/35 
f 32/55/32 30/49/30 34/52/34 36/56/36 
s 128
f 34/57/34 33/58/33 37/59/37 38/60/38 
f 33/58/33 35/61/35 39/62/39 37/59/37 
f 35/61/35 36/63/36 40/64/40 39/62/39 
f 36/63/36 34/57/34 38/60/38 40/64/40 
f 38/60/38 37/59/37 41/65/41 42/66/42 
f 37/59/37 39/62/39 43/67/43 41/65/41 
f 39/62/39 40/64/40 44/68/44 43/67/43 
f 40/64/40 38/60/38 42/66/42 44/68/44 
s off
f 42/69/42 41/70/41 45/71/45 46/72/46 
f 41/70/41 43/73/43 47/74/47 45/71/45 
f 43/73/43 44/75/44 48/76/48 47/74/47 
f 44/75/44 42/69/42 46/72/46 48/76/48 
s 2
f 46/72/46 45/71/45 49/77/49 50/78/50 
f 45/71/45 47/74/47 51/79/51 49/77/49 
f 47/74/47 48/76/48 52/80/29 51/79/51 
f 48/76/48 46/72/46 50/78/50 52/80/29 
s 64
f 50/78/50 49/77/49 53/81/52 54/82/53 
f 49/77/49 51/79/51 55/83/54 53/81/52 
f 51/79/51 52/80/29 56/84/45 55/83/54 
f 52/80/29 50/78/50 54/82/53 56/84/45 
s 1
f 53/81/52 55/83/54 56/84/45 54/82/53 
# 53 polygons

