# 3ds Max Wavefront OBJ Exporter v0.99 - (c)2007 guruware
# File Created: 20.07.2022 12:14:39

mtllib Mac_Com_L.mtl

#
# object Line001
#

v  -5.9788 29.2180 5.3604
v  5.9787 29.2180 5.3604
v  5.9787 28.6856 2.2993
v  -5.9788 28.6856 2.2993
v  5.9788 2.0133 -10.6113
v  5.9788 2.5788 -10.2164
v  -5.9787 2.5788 -10.2164
v  -5.9787 2.0133 -10.6113
v  -5.9787 2.2839 -11.2848
v  -5.9787 2.9436 -10.8241
v  5.9788 2.9436 -10.8241
v  5.9788 2.2839 -11.2848
v  5.9788 1.7123 -10.6581
v  -5.9787 1.7123 -10.6581
v  -5.9787 1.4322 -11.4173
v  5.9788 1.4322 -11.4173
v  5.9788 1.3914 -10.2846
v  -5.9787 1.3914 -10.2846
v  -5.9787 0.7453 -10.6176
v  5.9788 0.7453 -10.6176
v  5.9788 1.0230 -8.7924
v  -5.9787 1.0230 -8.7924
v  -5.9787 0.3232 -8.9077
v  5.9788 0.3232 -8.9077
v  -5.9787 0.7761 -5.8788
v  5.9788 0.7761 -5.8788
v  -5.9787 0.7072 -1.2534
v  5.9788 0.7072 -1.2534
v  -5.9787 0.8553 9.5994
v  5.9787 0.8553 9.5994
v  5.9787 0.1484 9.6151
v  -5.9787 0.1484 9.6151
v  -3.0110 18.8980 -1.8968
v  -3.0110 19.2190 -2.5268
v  -1.8010 19.9749 -2.1414
v  -1.8010 19.6539 -1.5114
v  -3.8579 17.8190 -2.4469
v  -3.8579 18.1400 -3.0769
v  -4.2394 16.5470 -3.0953
v  -4.2394 16.8680 -3.7254
v  -4.1096 15.2354 -3.7640
v  -4.1096 15.5565 -4.3940
v  -3.4841 14.0425 -4.3721
v  -3.4841 14.3636 -5.0021
v  -2.4384 13.1122 -4.8464
v  -2.4384 13.4332 -5.4764
v  -1.0986 12.5566 -5.1297
v  -1.0986 12.8776 -5.7597
v  0.3737 12.4427 -5.1877
v  0.3737 12.7637 -5.8177
v  1.8009 12.7843 -5.0136
v  1.8009 13.1054 -5.6436
v  3.0109 13.5402 -4.6282
v  3.0109 13.8613 -5.2582
v  3.8578 14.6193 -4.0781
v  3.8578 14.9403 -4.7081
v  4.2393 15.8913 -3.4296
v  4.2393 16.2123 -4.0597
v  4.1095 17.2028 -2.7610
v  4.1095 17.5238 -3.3910
v  3.4840 18.3957 -2.1529
v  3.4840 18.7167 -2.7829
v  2.4383 19.3260 -1.6786
v  2.4383 19.6471 -2.3086
v  1.0985 19.8817 -1.3953
v  1.0985 20.2027 -2.0253
v  -0.3738 19.9955 -1.3373
v  -0.3738 20.3166 -1.9673
v  -5.9788 28.0496 2.7687
v  -5.9788 28.5214 5.4816
v  5.9787 28.0496 2.7687
v  5.9787 28.5214 5.4816
v  5.9788 0.0694 -5.9140
v  5.9788 0.0000 -1.2508
v  -5.9787 0.0694 -5.9140
v  -5.9787 0.0000 -1.2508
v  -30.0000 48.8359 9.3687
v  30.0000 48.8359 9.3687
v  30.0000 48.8151 8.9641
v  -30.0000 48.8151 8.9641
v  -30.0000 8.8884 11.4173
v  30.0000 8.8884 11.4173
v  30.0000 14.5989 11.1244
v  -30.0000 14.5989 11.1244
v  30.0000 8.8676 11.0126
v  -30.0000 8.8676 11.0126
v  -12.0443 20.6165 6.3844
v  12.0443 20.6165 6.3844
v  12.0443 36.6545 5.5619
v  -12.0443 36.6545 5.5619
v  -0.0000 28.5603 4.5062
# 91 vertices

vn -0.7071 0.6966 -0.1212
vn 0.7071 0.6966 -0.1212
vn 0.6190 0.6320 -0.4664
vn -0.6190 0.6320 -0.4664
vn 0.7616 -0.2416 0.6013
vn 0.6919 -0.3715 0.6191
vn -0.6919 -0.3715 0.6191
vn -0.7616 -0.2416 0.6013
vn -0.6597 0.2801 -0.6974
vn -0.7230 0.3555 -0.5924
vn 0.7230 0.3555 -0.5924
vn 0.6597 0.2801 -0.6974
vn 0.8345 0.1907 0.5170
vn -0.8345 0.1907 0.5170
vn -0.6124 -0.2736 -0.7417
vn 0.6124 -0.2736 -0.7417
vn 0.7632 0.5744 0.2960
vn -0.7632 0.5744 0.2960
vn -0.6585 -0.6690 -0.3447
vn 0.6585 -0.6690 -0.3447
vn 0.7253 0.6793 0.1119
vn -0.7253 0.6793 0.1119
vn -0.8849 -0.4522 -0.1116
vn 0.8849 -0.4522 -0.1116
vn -0.7151 0.6982 0.0347
vn 0.7151 0.6982 0.0347
vn -0.7103 0.7039 0.0004
vn 0.7103 0.7039 0.0004
vn -0.5778 0.5873 0.5668
vn 0.5778 0.5874 0.5666
vn 0.7051 0.0157 0.7089
vn -0.7053 0.0157 0.7088
vn 0.7105 0.2792 -0.6460
vn 0.7104 -0.3588 0.6055
vn 0.6837 0.2358 -0.6906
vn 0.6837 -0.4204 0.5965
vn 0.7040 -0.3404 0.6234
vn 0.7039 0.3045 -0.6417
vn 0.7047 -0.3256 0.6304
vn 0.7047 0.3189 -0.6338
vn 0.7045 -0.3120 0.6375
vn 0.7045 0.3326 -0.6270
vn 0.7029 -0.2956 0.6470
vn 0.7029 0.3500 -0.6193
vn 0.7114 0.3767 -0.5932
vn 0.7115 -0.2588 0.6533
vn 0.6037 -0.1431 0.7843
vn 0.6037 0.5507 -0.5765
vn -0.0420 -0.2487 0.9677
vn -0.0421 0.6369 -0.7698
vn -0.6838 -0.2357 0.6905
vn -0.7132 -0.2182 0.6661
vn -0.7104 0.3588 -0.6055
vn -0.7009 0.3626 -0.6143
vn -0.7039 -0.3046 0.6417
vn -0.7097 -0.3018 0.6366
vn -0.7094 0.3235 -0.6262
vn -0.7047 0.3256 -0.6304
vn -0.7045 -0.3326 0.6269
vn -0.7044 0.3120 -0.6375
vn -0.7100 0.2921 -0.6408
vn -0.7100 -0.3470 0.6128
vn -0.6963 -0.3824 0.6074
vn -0.6964 0.2669 -0.6661
vn -0.6037 -0.5506 0.5765
vn -0.6037 0.1430 -0.7842
vn 0.0421 -0.6369 0.7698
vn 0.0421 0.2487 -0.9677
vn -0.9329 -0.1636 0.3209
vn -1.0000 -0.0000 -0.0000
vn 0.9329 -0.1636 0.3209
vn 1.0000 0.0000 0.0000
vn 1.0000 -0.0000 0.0000
vn 1.0000 -0.0000 -0.0000
vn -1.0000 0.0000 -0.0000
vn -1.0000 0.0000 0.0000
vn -0.5774 0.6062 0.5470
vn 0.5773 0.6062 0.5470
vn 0.5989 0.6213 -0.5052
vn -0.5989 0.6213 -0.5052
vn -0.7071 0.0362 0.7062
vn 0.7071 0.0362 0.7062
vn 0.7703 -0.2234 -0.5973
vn -0.7703 -0.2234 -0.5973
vn -0.5946 -0.2032 -0.7779
vn 0.5946 -0.2032 -0.7779
vn 0.5946 0.1225 -0.7946
vn -0.5946 0.1225 -0.7946
vn 0.0000 -0.0512 -0.9987
# 89 vertex normals

vt 0.0309 0.2249 0.0000
vt 0.0310 0.2014 0.0000
vt 0.1089 0.2023 0.0000
vt 0.1091 0.2232 0.0000
vt 0.2113 0.1222 0.0000
vt 0.1855 0.1222 0.0000
vt 0.1855 0.1019 0.0000
vt 0.2113 0.1019 0.0000
vt 0.2113 0.1683 0.0000
vt 0.1855 0.1683 0.0000
vt 0.1855 0.1443 0.0000
vt 0.2113 0.1443 0.0000
vt 0.2379 0.1222 0.0000
vt 0.2379 0.1019 0.0000
vt 0.2379 0.1683 0.0000
vt 0.2379 0.1443 0.0000
vt 0.2712 0.1222 0.0000
vt 0.2712 0.1019 0.0000
vt 0.2712 0.1683 0.0000
vt 0.2712 0.1443 0.0000
vt 0.3284 0.1222 0.0000
vt 0.3284 0.1019 0.0000
vt 0.3284 0.1683 0.0000
vt 0.3284 0.1443 0.0000
vt 0.4304 0.1019 0.0000
vt 0.4304 0.1222 0.0000
vt 0.6263 0.1019 0.0000
vt 0.6263 0.1222 0.0000
vt 0.8561 0.1019 0.0000
vt 0.8561 0.1222 0.0000
vt 0.9376 0.0819 0.0000
vt 0.9376 0.1019 0.0000
vt 0.8561 0.0819 0.0000
vt 0.7920 0.0642 0.0000
vt 0.7920 0.0423 0.0000
vt 0.8063 0.0423 0.0000
vt 0.8063 0.0642 0.0000
vt 0.7528 0.0642 0.0000
vt 0.7528 0.0423 0.0000
vt 0.7111 0.0642 0.0000
vt 0.7111 0.0423 0.0000
vt 0.6649 0.0642 0.0000
vt 0.6649 0.0423 0.0000
vt 0.6172 0.0642 0.0000
vt 0.6172 0.0423 0.0000
vt 0.5738 0.0642 0.0000
vt 0.5738 0.0423 0.0000
vt 0.5401 0.0642 0.0000
vt 0.5401 0.0423 0.0000
vt 0.5201 0.0642 0.0000
vt 0.5201 0.0423 0.0000
vt 0.5084 0.0642 0.0000
vt 0.5084 0.0423 0.0000
vt 0.4933 0.0642 0.0000
vt 0.4933 0.0423 0.0000
vt 0.4675 0.0642 0.0000
vt 0.4675 0.0423 0.0000
vt 0.4305 0.0642 0.0000
vt 0.4305 0.0423 0.0000
vt 0.3867 0.0642 0.0000
vt 0.3867 0.0423 0.0000
vt 0.3414 0.0642 0.0000
vt 0.3414 0.0423 0.0000
vt 0.3012 0.0642 0.0000
vt 0.3012 0.0423 0.0000
vt 0.8452 0.0642 0.0000
vt 0.8317 0.0642 0.0000
vt 0.8317 0.0423 0.0000
vt 0.8452 0.0423 0.0000
vt 0.8177 0.0642 0.0000
vt 0.8177 0.0423 0.0000
vt 0.1152 0.2438 0.0000
vt 0.0318 0.2462 0.0000
vt 0.1173 0.1812 0.0000
vt 0.0316 0.1801 0.0000
vt 0.9726 0.2163 0.0000
vt 0.5055 0.2170 0.0000
vt 0.5495 0.2164 0.0000
vt 0.9725 0.1949 0.0000
vt 0.6393 0.2103 0.0000
vt 0.6431 0.2077 0.0000
vt 0.5273 0.2018 0.0000
vt 0.4833 0.2024 0.0000
vt 0.3935 0.2085 0.0000
vt 0.3897 0.2111 0.0000
vt 0.4628 0.2167 0.0000
vt 0.5895 0.2150 0.0000
vt 0.6316 0.2052 0.0000
vt 0.6062 0.2033 0.0000
vt 0.4433 0.2038 0.0000
vt 0.4121 0.2060 0.0000
vt 0.4012 0.2135 0.0000
vt 0.4266 0.2155 0.0000
vt 0.9760 0.2377 0.0000
vt 0.9737 0.1736 0.0000
vt 0.4304 0.1443 0.0000
vt 0.6263 0.1443 0.0000
vt 0.8561 0.1443 0.0000
vt 0.1855 0.0819 0.0000
vt 0.2113 0.0819 0.0000
vt 0.2379 0.0819 0.0000
vt 0.2712 0.0819 0.0000
vt 0.3284 0.0819 0.0000
vt 0.4304 0.0819 0.0000
vt 0.6263 0.0819 0.0000
vt 0.6207 0.2129 0.0000
vt 0.5700 0.2021 0.0000
vt 0.3887 0.2521 0.0000
vt 0.3926 0.2547 0.0000
vt 0.1164 0.2653 0.0000
vt 0.4002 0.2495 0.0000
vt 0.5269 0.2592 0.0000
vt 0.5696 0.2582 0.0000
vt 0.9762 0.2587 0.0000
vt 0.4827 0.2594 0.0000
vt 0.5484 0.2441 0.0000
vt 0.5040 0.2442 0.0000
vt 0.5889 0.2450 0.0000
vt 0.6427 0.2515 0.0000
vt 0.6389 0.2489 0.0000
vt 0.6314 0.2541 0.0000
vt 0.4113 0.2570 0.0000
vt 0.4613 0.2453 0.0000
vt 0.6060 0.2564 0.0000
vt 0.6202 0.2467 0.0000
vt 0.4426 0.2586 0.0000
vt 0.4256 0.2471 0.0000
vt 0.5907 0.9790 0.0000
vt 0.9824 0.9790 0.0000
vt 0.9839 0.9800 0.0000
vt 0.5892 0.9800 0.0000
vt 0.5907 0.7198 0.0000
vt 0.9824 0.7198 0.0000
vt 0.9823 0.7569 0.0000
vt 0.5908 0.7569 0.0000
vt 0.9847 0.7199 0.0000
vt 0.5884 0.7199 0.0000
vt 0.0649 0.3551 0.0000
vt 0.5618 0.3552 0.0000
vt 0.4121 0.4566 0.0000
vt 0.2140 0.4567 0.0000
vt 0.5617 0.6888 0.0000
vt 0.0648 0.6887 0.0000
vt 0.2144 0.5873 0.0000
vt 0.4126 0.5872 0.0000
vt 0.3133 0.5219 0.0000
# 146 texture coords

o Line001
g Line001
usemtl 01___Default
s 2
f 1/1/1 2/2/2 3/3/3 4/4/4 
s 4
f 5/5/5 6/6/6 7/7/7 8/8/8 
f 9/9/9 10/10/10 11/11/11 12/12/12 
f 13/13/13 5/5/5 8/8/8 14/14/14 
f 15/15/15 9/9/9 12/12/12 16/16/16 
s 2
f 17/17/17 13/13/13 14/14/14 18/18/18 
f 19/19/19 15/15/15 16/16/16 20/20/20 
f 21/21/21 17/17/17 18/18/18 22/22/22 
f 23/23/23 19/19/19 20/20/20 24/24/24 
f 21/21/21 22/22/22 25/25/25 26/26/26 
f 26/26/26 25/25/25 27/27/27 28/28/28 
f 28/28/28 27/27/27 29/29/29 30/30/30 
s 4
f 31/31/31 30/32/30 29/29/29 32/33/32 
s off
f 33/34/33 34/35/34 35/36/35 36/37/36 
f 34/35/34 33/34/33 37/38/37 38/39/38 
f 38/39/38 37/38/37 39/40/39 40/41/40 
f 40/41/40 39/40/39 41/42/41 42/43/42 
f 42/43/42 41/42/41 43/44/43 44/45/44 
f 44/45/44 43/44/43 45/46/45 46/47/46 
f 46/47/46 45/46/45 47/48/47 48/49/48 
f 48/49/48 47/48/47 49/50/49 50/51/50 
f 49/50/49 51/52/51 52/53/52 50/51/50 
f 51/52/51 53/54/53 54/55/54 52/53/52 
f 53/54/53 55/56/55 56/57/56 54/55/54 
f 55/56/55 57/58/57 58/59/58 56/57/56 
f 57/58/57 59/60/59 60/61/60 58/59/58 
f 59/60/59 61/62/61 62/63/62 60/61/60 
f 61/62/61 63/64/63 64/65/64 62/63/62 
f 63/66/63 65/67/65 66/68/66 64/69/64 
f 65/67/65 67/70/67 68/71/68 66/68/66 
f 68/71/68 67/70/67 36/37/36 35/36/35 
s 1
f 1/1/1 4/4/4 69/72/69 70/73/70 
f 71/74/71 3/3/3 2/2/2 72/75/72 
s 8
f 10/76/10 4/4/4 40/77/40 42/78/42 
s 2
f 11/79/11 10/76/10 48/80/48 50/81/50 
s 8
f 3/3/3 11/79/11 58/82/58 60/83/60 
s 4
f 66/84/66 68/85/68 4/4/4 3/3/3 
s off
f 40/77/40 4/4/4 38/86/38 
f 44/87/44 10/76/10 42/78/42 
f 52/88/52 54/89/54 11/79/11 50/81/50 
f 62/90/62 64/91/64 3/3/3 60/83/60 
f 64/91/64 66/84/66 3/3/3 
f 4/4/4 68/85/68 35/92/35 
f 4/4/4 35/92/35 34/93/34 38/86/38 
s 1
f 4/4/4 10/76/10 7/94/7 69/72/69 
f 71/74/71 6/95/6 11/79/11 3/3/3 
f 6/6/6 5/5/5 12/12/12 11/11/11 
f 5/5/5 13/13/13 16/16/16 12/12/12 
f 13/13/13 17/17/17 20/20/20 16/16/16 
f 17/17/17 21/21/21 24/24/24 20/20/20 
f 21/21/21 26/26/26 73/96/73 24/24/24 
f 26/26/26 28/28/28 74/97/74 73/96/73 
f 28/28/28 30/30/30 31/98/31 74/97/74 
f 10/99/10 9/100/9 8/8/8 7/7/7 
f 9/100/9 15/101/15 14/14/14 8/8/8 
f 15/101/15 19/102/19 18/18/18 14/14/14 
f 19/102/19 23/103/23 22/22/22 18/18/18 
f 23/103/23 75/104/75 25/25/25 22/22/22 
f 75/104/75 76/105/76 27/27/27 25/25/25 
f 76/105/76 32/33/32 29/29/29 27/27/27 
s off
f 44/87/44 46/106/46 48/80/48 10/76/10 
f 54/89/54 56/107/56 58/82/58 11/79/11 
s 4
f 67/108/67 65/109/65 71/110/71 69/72/69 
f 36/111/36 67/108/67 69/72/69 
s 8
f 57/112/57 55/113/55 6/114/6 71/110/71 
f 59/115/59 57/112/57 71/110/71 
f 41/116/41 39/117/39 69/72/69 7/94/7 
f 43/118/43 41/116/41 7/94/7 
s 2
f 49/119/49 47/120/47 7/94/7 6/114/6 
f 51/121/51 49/119/49 6/114/6 
s off
f 63/122/63 71/110/71 65/109/65 
f 37/123/37 69/72/69 39/117/39 
f 53/124/53 51/121/51 6/114/6 55/113/55 
f 45/125/45 43/118/43 7/94/7 47/120/47 
f 63/122/63 61/126/61 59/115/59 71/110/71 
f 37/123/37 33/127/33 36/111/36 69/72/69 
s 4
f 77/128/77 78/129/78 79/130/79 80/131/80 
s 8
f 81/132/81 82/133/82 83/134/82 84/135/81 
s 16
f 82/133/82 85/136/83 83/134/82 
s 64
f 86/137/84 84/135/81 80/131/80 
s off
f 85/138/83 86/139/84 87/140/85 88/141/86 
f 80/142/80 79/143/79 89/144/87 90/145/88 
f 79/143/79 85/138/83 88/141/86 89/144/87 
f 86/139/84 80/142/80 90/145/88 87/140/85 
f 88/141/86 87/140/85 91/146/89 
f 90/145/88 89/144/87 91/146/89 
f 89/144/87 88/141/86 91/146/89 
f 87/140/85 90/145/88 91/146/89 
s 8
f 83/134/82 78/129/78 77/128/77 84/135/81 
s 64
f 86/137/84 81/132/81 84/135/81 
f 84/135/81 77/128/77 80/131/80 
s 16
f 79/130/79 78/129/78 83/134/82 
f 85/136/83 79/130/79 83/134/82 
# 73 polygons - 20 triangles

