# 3ds Max Wavefront OBJ Exporter v0.99 - (c)2007 guruware
# File Created: 19.07.2022 01:56:16

mtllib Aircon_L.mtl

#
# object Box015
#

v  -20.0000 180.0000 14.9250
v  20.0000 180.0000 14.9250
v  20.0000 180.0000 10.6104
v  -20.0000 180.0000 10.6104
v  20.0000 0.0000 -14.9250
v  -20.0000 0.0000 -14.9250
v  -20.0000 180.0000 -14.9250
v  20.0000 180.0000 -14.9250
v  -20.0000 0.0000 10.6104
v  -20.0000 94.8846 10.6104
v  20.0000 0.0000 10.6104
v  20.0000 94.8846 10.6104
v  20.0000 94.8846 14.9250
v  -20.0000 94.8846 14.9250
v  -17.3951 177.0141 14.9250
v  17.3951 177.0141 14.9250
v  17.3951 144.9573 14.9250
v  -17.3951 144.9573 14.9250
v  -17.5249 175.7125 14.7459
v  -17.5249 171.9062 12.9710
v  17.5249 171.9062 12.9710
v  17.5249 175.7125 14.7459
v  -17.5249 170.5691 14.7459
v  -17.5249 166.7628 12.9710
v  17.5249 166.7628 12.9710
v  17.5249 170.5691 14.7459
v  -17.5249 165.3846 14.7459
v  -17.5249 161.5783 12.9710
v  17.5249 161.5783 12.9710
v  17.5249 165.3846 14.7459
v  -17.5249 160.2715 14.7459
v  -17.5249 156.4652 12.9710
v  17.5249 156.4652 12.9710
v  17.5249 160.2715 14.7459
v  -17.5249 155.2928 14.7459
v  -17.5249 151.4865 12.9710
v  17.5249 151.4865 12.9710
v  17.5249 155.2928 14.7459
v  -17.5249 150.3149 14.7459
v  -17.5249 146.5086 12.9710
v  17.5249 146.5086 12.9710
v  17.5249 150.3149 14.7459
v  20.0000 0.0000 14.9250
v  20.0000 0.0000 10.6131
v  20.0000 94.7897 10.6131
v  20.0000 94.7897 14.9250
v  -20.0000 0.0000 10.6131
v  -20.0000 0.0000 14.9250
v  -20.0000 94.7897 14.9250
v  -20.0000 94.7897 10.6131
v  -13.0451 82.6971 14.9282
v  -15.6385 79.3180 14.9282
v  15.6385 79.3180 14.9282
v  13.0451 82.6971 14.9282
v  -13.0451 73.3651 14.9282
v  -15.6385 69.9860 14.9282
v  15.6385 69.9860 14.9282
v  13.0451 73.3651 14.9282
v  -13.0451 64.0331 14.9282
v  -15.6385 60.6540 14.9282
v  15.6385 60.6540 14.9282
v  13.0451 64.0331 14.9282
v  -13.0451 54.7010 14.9282
v  -15.6385 51.3219 14.9282
v  15.6385 51.3219 14.9282
v  13.0451 54.7010 14.9282
v  -13.0451 45.3690 14.9282
v  -15.6385 41.9899 14.9282
v  15.6385 41.9899 14.9282
v  13.0451 45.3690 14.9282
v  -13.0451 36.0370 14.9282
v  -15.6385 32.6579 14.9282
v  15.6385 32.6579 14.9282
v  13.0451 36.0370 14.9282
v  -13.0451 26.7049 14.9282
v  -15.6385 23.3258 14.9282
v  15.6385 23.3258 14.9282
v  13.0451 26.7049 14.9282
v  -13.0451 17.3729 14.9282
v  -15.6385 13.9938 14.9282
v  15.6385 13.9938 14.9282
v  13.0451 17.3729 14.9282
# 82 vertices

vn -0.5774 0.5774 0.5774
vn 0.5774 0.5774 0.5774
vn 0.7071 0.7071 -0.0000
vn -0.7071 0.7071 -0.0000
vn 0.7071 0.0000 -0.7071
vn -0.7071 0.0000 -0.7071
vn -0.5774 0.5774 -0.5774
vn 0.5774 0.5774 -0.5774
vn -1.0000 0.0000 -0.0000
vn 1.0000 0.0000 -0.0000
vn 0.7071 0.0000 0.7071
vn -0.7071 0.0000 0.7071
vn 0.0000 0.0000 1.0000
vn 0.0000 -0.5299 0.8480
vn 0.0000 -0.0000 1.0000
# 15 vertex normals

vt 0.0375 0.7303 0.0000
vt 0.0423 0.6040 0.0000
vt 0.0608 0.6047 0.0000
vt 0.0560 0.7309 0.0000
vt 0.1913 0.0401 0.0000
vt 0.3188 0.0444 0.0000
vt 0.2972 0.6127 0.0000
vt 0.1698 0.6084 0.0000
vt 0.4278 0.0481 0.0000
vt 0.4164 0.3477 0.0000
vt 0.1650 0.7346 0.0000
vt 0.0823 0.0364 0.0000
vt 0.0710 0.3360 0.0000
vt 0.0525 0.3353 0.0000
vt 0.4348 0.3483 0.0000
vt 0.4246 0.6170 0.0000
vt 0.4062 0.6164 0.0000
vt 0.4333 0.6079 0.0000
vt 0.5441 0.6116 0.0000
vt 0.5521 0.6213 0.0000
vt 0.5480 0.5104 0.0000
vt 0.4371 0.5067 0.0000
vt 0.5623 0.3526 0.0000
vt 0.2398 0.8032 0.0000
vt 0.2398 0.7113 0.0000
vt 0.9483 0.7113 0.0000
vt 0.9483 0.8032 0.0000
vt 0.6454 0.4770 0.0000
vt 0.6197 0.4770 0.0000
vt 0.6197 0.0592 0.0000
vt 0.6454 0.0592 0.0000
vt 0.8490 0.4770 0.0000
vt 0.8233 0.4770 0.0000
vt 0.8233 0.0592 0.0000
vt 0.8490 0.0592 0.0000
vt 0.2917 0.9521 0.0000
vt 0.2329 0.8693 0.0000
vt 0.9415 0.8693 0.0000
vt 0.8827 0.9521 0.0000
# 39 texture coords

o Box015
g Box015
usemtl 03___Default
s 4
f 1/1/1 2/2/2 3/3/3 4/4/4 
s 32
f 5/5/5 6/6/6 7/7/7 8/8/8 
s 64
f 6/6/6 9/9/9 10/10/9 7/7/7 
s 4
f 3/3/3 8/8/8 7/11/7 4/4/4 
s 16
f 11/12/10 5/5/5 8/8/8 12/13/10 
f 12/13/10 3/3/3 2/2/2 13/14/11 
s 64
f 14/15/12 1/16/1 4/17/4 10/10/9 
s 2
f 15/18/13 16/19/13 2/20/2 1/16/1 
s 9
f 17/21/13 18/22/13 14/15/12 13/23/11 
s off
f 2/20/2 16/19/13 17/21/13 13/23/11 
f 15/18/13 1/16/1 14/15/12 18/22/13 
s 64
f 10/10/9 4/17/4 7/7/7 
s 16
f 8/8/8 3/3/3 12/13/10 
s 1
f 19/24/14 20/25/14 21/26/14 22/27/14 
f 23/24/14 24/25/14 25/26/14 26/27/14 
f 27/24/14 28/25/14 29/26/14 30/27/14 
f 31/24/14 32/25/14 33/26/14 34/27/14 
f 35/24/14 36/25/14 37/26/14 38/27/14 
f 39/24/14 40/25/14 41/26/14 42/27/14 
s 16
f 43/28/11 44/29/10 45/30/10 46/31/11 
s 64
f 47/32/9 48/33/12 49/34/12 50/35/9 
s 9
f 49/34/12 48/33/12 43/28/11 46/31/11 
s 1
f 51/36/13 52/37/13 53/38/13 54/39/13 
f 55/36/13 56/37/13 57/38/13 58/39/13 
f 59/36/13 60/37/13 61/38/13 62/39/13 
f 63/36/15 64/37/15 65/38/15 66/39/15 
f 67/36/13 68/37/13 69/38/13 70/39/13 
f 71/36/13 72/37/13 73/38/13 74/39/13 
f 75/36/13 76/37/13 77/38/13 78/39/13 
f 79/36/13 80/37/13 81/38/13 82/39/13 
# 28 polygons - 2 triangles

