# 3ds Max Wavefront OBJ Exporter v0.99 - (c)2007 guruware
# File Created: 16.07.2022 23:33:42

mtllib HEKI.mtl

#
# object Plane001
#

v  -150.0000 250.0000 150.0000
v  -150.0000 0.0000 150.0000
v  -150.0001 0.0000 -150.0000
v  -150.0000 250.0000 -150.0000
v  150.0000 250.0000 150.0000
v  150.0000 250.0000 -150.0000
v  150.0001 0.0000 -150.0000
v  150.0000 0.0000 150.0000
# 8 vertices

vn 1.0000 -0.0000 -0.0000
vn 0.7071 -0.0000 0.7071
vn -1.0000 -0.0000 -0.0000
vn -0.7071 -0.0000 0.7071
# 4 vertex normals

vt 0.0349 0.6343 0.0000
vt 0.0349 0.3763 0.0000
vt 0.3445 0.3763 0.0000
vt 0.3445 0.6343 0.0000
vt 0.9638 0.6343 0.0000
vt 0.6542 0.6343 0.0000
vt 0.6542 0.3763 0.0000
vt 0.9638 0.3763 0.0000
# 8 texture coords

o Plane001
g Plane001
usemtl Material__24
s 1
f 1/1/1 2/2/1 3/3/2 4/4/2 
f 5/5/3 6/6/4 7/7/4 8/8/3 
s 2
f 7/7/4 6/6/4 4/4/2 3/3/2 
# 3 polygons

