# 3ds Max Wavefront OBJ Exporter v0.99 - (c)2007 guruware
# File Created: 22.07.2022 00:55:32

mtllib 305_Computer.mtl

#
# object Box021
#

v  -17.9707 54.5645 0.6797
v  -17.9707 53.9305 -0.6797
v  17.9707 53.9305 -0.6797
v  17.9707 54.5645 0.6797
v  -17.9707 75.2032 -8.9443
v  17.9707 75.2032 -8.9443
v  17.9707 74.5693 -10.3037
v  -17.9707 74.5693 -10.3037
v  -17.7922 54.6477 0.4912
v  17.7922 54.6477 0.4912
v  17.7922 75.0052 -9.0017
v  -17.7922 75.0052 -9.0017
v  17.7922 54.7051 0.6142
v  -17.7922 54.7051 0.6142
v  17.7922 75.0626 -8.8787
v  -17.7922 75.0626 -8.8787
# 16 vertices

vn -0.5774 -0.2793 0.7673
vn -0.5774 -0.7673 -0.2793
vn 0.5774 -0.7673 -0.2793
vn 0.5774 -0.2793 0.7673
vn -0.5774 0.7673 0.2793
vn 0.5774 0.7673 0.2793
vn 0.5774 0.2793 -0.7673
vn -0.5774 0.2793 -0.7673
vn -0.3015 0.6555 0.6924
vn 0.3015 0.6555 0.6924
vn -0.3015 0.1090 0.9472
vn 0.3015 0.1090 0.9472
# 12 vertex normals

vt 0.7857 0.0497 0.0000
vt 0.7741 0.0614 0.0000
vt 0.1550 0.0614 0.0000
vt 0.1434 0.0497 0.0000
vt 0.7857 0.5242 0.0000
vt 0.1434 0.5242 0.0000
vt 0.1550 0.5125 0.0000
vt 0.7741 0.5125 0.0000
vt 0.1868 0.5745 0.0000
vt 0.7231 0.5745 0.0000
vt 0.7231 0.9639 0.0000
vt 0.1868 0.9639 0.0000
vt 0.1841 0.5718 0.0000
vt 0.7258 0.5718 0.0000
vt 0.7258 0.9666 0.0000
vt 0.1841 0.9666 0.0000
# 16 texture coords

o Box021
g Box021
usemtl wire_008061138
s 2
f 1/1/1 2/2/2 3/3/3 4/4/4 
s 4
f 5/5/5 6/6/6 7/7/7 8/8/8 
s 8
f 9/9/6 10/10/5 11/11/1 12/12/4 
s 16
f 4/4/4 3/3/3 7/7/7 6/6/6 
s 32
f 3/3/3 2/2/2 8/8/8 7/7/7 
s 64
f 2/2/2 1/1/1 5/5/5 8/8/8 
s off
f 1/13/1 4/14/4 13/10/9 14/9/10 
f 4/14/4 6/15/6 15/11/11 13/10/9 
f 6/15/6 5/16/5 16/12/12 15/11/11 
f 5/16/5 1/13/1 14/9/10 16/12/12 
f 14/9/10 13/10/9 10/10/5 9/9/6 
f 13/10/9 15/11/11 11/11/1 10/10/5 
f 15/11/11 16/12/12 12/12/4 11/11/1 
f 16/12/12 14/9/10 9/9/6 12/12/4 
# 14 polygons

